<svg id="Layer_1" data-name="Layer 1" xmlns="http://www.w3.org/2000/svg" viewBox="0 0 400 300"><defs><style>.cls-1{fill:#099;}.cls-2{fill:#fff;stroke:#fff;stroke-miterlimit:10;stroke-width:0.5px;}</style></defs><title>adlight_card_img</title><rect id="bg" class="cls-1" x="-554.59" y="-148.99" width="1011.84" height="452.3"/><g id="Outlines"><path class="cls-2" d="M149.55,71.87A6.43,6.43,0,1,1,156,65.45,6.43,6.43,0,0,1,149.55,71.87Zm0-10.61a4.19,4.19,0,1,0,4.18,4.19A4.19,4.19,0,0,0,149.55,61.26Z"/><path class="cls-2" d="M117.39,245.64A61.6,61.6,0,1,1,179,184,61.67,61.67,0,0,1,117.39,245.64Zm0-121A59.36,59.36,0,1,0,176.75,184,59.43,59.43,0,0,0,117.39,124.68Z"/><path class="cls-2" d="M318.42,245.64A61.6,61.6,0,1,1,380,184,61.67,61.67,0,0,1,318.42,245.64Zm0-121A59.36,59.36,0,1,0,377.78,184,59.43,59.43,0,0,0,318.42,124.68Z"/><path class="cls-2" d="M114.48,193.09a3.64,3.64,0,0,1-.88-.11,5.57,5.57,0,0,1-3.78-4.43,5.22,5.22,0,0,1,1.81-5.4c4.47-3.4,18.05-24.69,20.77-32.55,3.14-9.09,25-73.17,25.22-73.82l.26-.76h7.51l-23.54,77.35c-.66,1.16-16.23,28.56-23.59,37.62A4.85,4.85,0,0,1,114.48,193.09Zm45-114.83c-2.48,7.29-22,64.51-25,73.07-2.88,8.3-16.76,30-21.53,33.6a3.1,3.1,0,0,0-1,3.16,3.46,3.46,0,0,0,2.12,2.72c1,.23,1.83-.54,2.39-1.23,7-8.64,22.23-35.28,23.32-37.21l22.52-74.11Z"/><path class="cls-2" d="M156.41,87.27,152,78.87l-3.87-8.64,6.18-3.13L159.9,77ZM154,77.92l2,3.72,1.5-4.38-4.08-7.19L151,71.27Z"/><path class="cls-2" d="M144.25,66.57h-6.82V49.08h17.81V65.21l-1.86-1.62c-2-1.74-3.7-2.41-5-2-1.79.57-2.78,3.15-3,4.1l-.21.85Zm-4.58-2.24h3.75c.5-1.39,1.74-4,4.24-4.85a6.28,6.28,0,0,1,5.34,1V51.32H139.67Z"/><path class="cls-2" d="M235.15,201.29l-4.75-2.08-.18-.35c-16.6-32-77.41-84-78-84.55l-.56-.48,2.34-7.69,1.24.77c36.64,22.7,77.71,80.3,82.25,86.76,11.26-1.74,75.54-4.84,78.34-5l.2,2.23ZM232,197.47l3.45,1.52,51-6.54c-20.28,1.12-44.39,2.59-49.28,3.54l-.72.14-.41-.6c-.43-.62-42.82-61.68-80.77-85.94l-1.06,3.49C160.4,118.42,215.85,166.73,232,197.47Z"/><path class="cls-2" d="M236.34,195.77l-3.12-6,7.29-29.07c-6.26-7.26-58.25-39.44-85.37-55.74l1.15-1.92c3.28,2,80.38,48.37,86.35,56.74l.3.43-7.34,29.28,2,3.85,1.76-.24,8.32-35.3C240.3,152.66,170.17,104,157,99.48l.73-2.11c14.09,4.83,88.65,56.82,91.82,59l.62.44-9,38.27Z"/><path class="cls-2" d="M249.64,159.16l-7.24-5,13.84-53.86,8.84-2Zm-4.68-6,3.3,2.29L262,101.24l-3.94.91Z"/><path class="cls-2" d="M316.21,190.74l-1.09-.83c-4.52-3.43-9-8.52-14.27-14.41-9.9-11.15-23.45-26.41-46.41-40.7l-.7-.44,1.73-6.85,1.32.89c2,1.39,50,34.19,62.48,54.6l.31.51ZM256.3,133.32c22.82,14.34,36.32,29.55,46.21,40.69,4.72,5.32,8.86,10,12.86,13.26l1.68-3.61c-11.53-18.19-52.34-47-60.2-52.5Z"/><path class="cls-2" d="M317.44,195.68a10.39,10.39,0,1,1,10.38-10.39A10.4,10.4,0,0,1,317.44,195.68Zm0-18.54a8.15,8.15,0,1,0,8.15,8.15A8.15,8.15,0,0,0,317.44,177.14Z"/><path class="cls-2" d="M235.21,210.39a13.11,13.11,0,1,1,13.11-13.11A13.13,13.13,0,0,1,235.21,210.39Zm0-24a10.87,10.87,0,1,0,10.87,10.87A10.88,10.88,0,0,0,235.21,186.41Z"/><path class="cls-2" d="M257.5,101.72l-.33-.16c-.1,0-10.16-5.13-16.5-4.36-5.21.63-11.77-.34-12.84-2.73a1.92,1.92,0,0,1,.59-2.28l.16-.11c.6-.37,15-9,43.74-6.71l.18,0,.16.06c.46.19,4.45,1.9,4.65,4.84.12,1.74-1.09,3.35-3.6,4.8-7.29,4.22-9.49,5.42-9.58,5.47l-.17.09ZM242,94.88c6.23,0,14.09,3.67,15.82,4.52l5.37-.9c.63-.35,3.18-1.77,9.37-5.35,1.65-1,2.54-1.92,2.48-2.71-.08-1.17-2-2.37-3.1-2.85-25.33-1.94-39.39,4.87-41.84,6.18,1.15.76,5.37,1.8,10.27,1.21A12.52,12.52,0,0,1,242,94.88Z"/><path class="cls-2" d="M117.39,252.26A68.22,68.22,0,1,1,185.61,184,68.29,68.29,0,0,1,117.39,252.26Zm0-134.2a66,66,0,1,0,66,66A66.05,66.05,0,0,0,117.39,118.06Z"/><path class="cls-2" d="M318.42,252.26A68.22,68.22,0,1,1,386.65,184,68.3,68.3,0,0,1,318.42,252.26Zm0-134.2a66,66,0,1,0,66,66A66.06,66.06,0,0,0,318.42,118.06Z"/><path class="cls-2" d="M13.43,47.74a121,121,0,0,0-1.15,16.59,119.71,119.71,0,0,0,9.35,46.53l116-54.37Z"/></g></svg>